<?xml version="1.0" encoding="UTF-8" standalone="no"?>
<!-- Created with Inkscape (http://www.inkscape.org/) -->

<svg
   width="403.65891mm"
   height="128.45561mm"
   viewBox="0 0 403.65888 128.45561"
   version="1.1"
   id="svg1"
   xml:space="preserve"
   xmlns="http://www.w3.org/2000/svg"
   xmlns:svg="http://www.w3.org/2000/svg"><defs
     id="defs1"><filter
       style="color-interpolation-filters:sRGB"
       id="filter29"
       x="-0.026771145"
       y="-0.23185631"
       width="1.0535423"
       height="1.4637126"><feGaussianBlur
         stdDeviation="4.1540933"
         id="feGaussianBlur29" /></filter></defs><g
     id="layer7"
     transform="translate(-594.22527,-98.766549)"><g
       id="g85"
       transform="translate(31.800751,-16.270617)"><path
         id="path793"
         style="display:inline;vector-effect:non-scaling-stroke;fill:#a3cad1;fill-opacity:1;stroke:none;stroke-width:0.264583;stroke-dasharray:none;stroke-opacity:1;-inkscape-stroke:hairline"
         d="m 70.945079,172.83259 c -1.20894,-0.50119 -1.20181,-1.01559 0.0255,-1.84268 1.19337,-0.80421 2.94269,-1.13802 4.46925,-0.85283 1.62239,0.3031 1.92982,0.61576 1.26205,1.28354 -0.45063,0.45062 -3.98037,1.88038 -4.54826,1.84231 -0.11188,-0.007 -0.65572,-0.20115 -1.20855,-0.43034 z m 6.60685,-2.92206 c -0.17433,-0.28207 1.755923,-3.04057 2.763653,-3.9495 0.7235,-0.65257 2.44748,-1.27946 4.2685,-1.55217 1.17242,-0.17558 1.25677,-0.14951 1.25677,0.38839 0,1.33185 -1.74689,3.52052 -3.53182,4.42501 -1.42306,0.72112 -4.46481,1.16121 -4.757103,0.68827 z m 102.877461,-2.98396 c -0.25977,-0.42033 0.11533,-0.8115 1.28941,-1.34466 1.04944,-0.47655 2.28247,-0.66981 2.28247,-0.35774 0,1.16411 -3.01612,2.60163 -3.57188,1.7024 z m 4.69636,-2.01308 c -1.00154,-0.44724 0.10784,-1.52028 2.7192,-2.63012 1.57207,-0.66814 1.77544,-0.69899 2.14857,-0.32586 1.02363,1.02363 -0.93545,2.8942 -3.16707,3.02399 -0.75348,0.0438 -1.5188,0.0132 -1.7007,-0.068 z m -98.160418,-0.5549 c -1.36986,-0.26384 -0.39241,-1.74675 2.29723,-3.48515 1.77177,-1.14515 3.14652,-1.53158 6.05732,-1.70267 l 1.93841,-0.11394 -0.16905,0.67356 c -0.25344,1.00977 -1.71316,2.91336 -2.70328,3.52529 -1.38779,0.8577 -5.51158,1.47061 -7.42063,1.10291 z M 350.48015,130.51632 c 4.11559,-2.70245 9.66292,-14.73036 7.54766,-20.0122 -2.42069,-6.04454 -8.43968,-6.30266 -11.81824,-5.50095 -2.74211,0.65068 -5.20655,2.08422 -8.63631,0.52783 -5.00704,-2.27213 3.96291,-8.952745 -1.50541,-8.306495 -2.124,0.25102 -16.23223,4.718655 -11.63842,8.698715 3.37388,2.92311 10.60299,8.31847 10.4232,10.2138 -0.36256,3.82196 -11.19878,8.57355 -14.62733,11.11782 -3.69615,2.74285 -12.59473,2.56098 -17.24782,2.7637 -4.70412,0.20495 -9.58486,3.24062 -12.61363,2.48454 -2.77874,-0.69367 5.31077,-5.50969 9.53639,-6.86609 3.76673,-1.20911 15.11163,-2.03095 17.84195,-8.16091 1.41971,-3.18745 -5.3584,-6.17555 -8.74975,-10.04804 -6.97134,-7.960365 -20.12751,1.06463 -24.09575,-7.23698 -2.47531,-5.178375 -10.46613,5.35926 -13.07316,1.86172 -1.23284,-1.65395 2.60122,-3.310885 1.43455,-6.018205 -4.14445,-9.6174 -25.11678,12.835545 -22.7678,7.019285 0.27169,-0.67273 8.6575,-12.414825 10.15065,-14.368605 1.58221,-2.0703 1.92702,-6.74842 0.2318,-7.20049 -7.14692,-1.90591 -18.32869,6.75758 -19.98685,4.53412 -1.70957,-2.29241 7.38991,-7.08261 7.30727,-9.55659 -0.0646,-1.93273 -5.98532,-3.32933 -8.59784,-2.95443 -6.28062,0.90128 -7.58841,0.91866 -12.29857,2.14876 -4.38881,1.14617 -7.45792,6.00474 -11.82872,8.97004 -2.92477,1.98426 -3.41495,2.34198 -5.1181,2.31236 11.36065,-17.45905 12.63444,-10.47878 18.87642,-18.85071 7.68563,-5.01762 7.63537,-3.5266 12.88195,-8.40252 13.71324,-10.9944 13.96627,-14.90989 15.91912,-14.87753 1.44231,0.0239 6.78095,5.64403 10.33012,9.14585 1.27547,1.25845 2.10696,0.057 3.92407,0.0227 1.4801,-0.028 6.07882,7.84775 7.54823,12.70023 0.64029,2.11444 2.53208,3.39357 3.26593,5.31073 2.17602,5.6848 6.90957,1.25764 8.18209,1.25538 5.84559,-0.0104 13.5332,16.53187 21.98995,21.52661 8.45674,4.99475 11.09298,0.77679 16.5706,-2.14566 5.47762,-2.92245 14.05173,-8.51478 14.47091,-8.49693 1.83891,0.0783 10.02848,10.48674 14.46364,14.38524 4.73841,4.165065 10.62873,12.211235 16.55128,15.069855 2.79921,1.35108 29.05085,8.08413 38.64218,15.05945 8.18847,5.95508 13.87449,13.91732 25.85483,16.37793 5.99112,1.2305 14.59711,5.16583 21.1273,8.81517 7.48301,4.18182 13.08523,8.71457 12.73937,9.14033 -0.70828,0.87189 -1.44946,1.23226 -2.49322,1.39515 -2.40741,-1.17296 -4.08294,-1.66513 -7.11724,-2.76555 -2.12189,-0.76953 -4.73986,-1.26572 -6.82301,-2.50719 -4.02449,-2.39843 -9.03686,-5.35484 -10.92042,-6.09398 -12.2489,-2.75198 -19.96439,-0.27155 -38.07162,-8.05051 -10.06221,-0.54956 -33.83395,3.61434 -34.63712,0.94409 -0.97865,-2.93149 23.43966,-4.8897 9.29782,-9.60147 -7.65569,-0.65977 -17.59627,0.7734 -25.84126,1.91743 -5.95949,0.82691 -11.2129,0.3499 -13.56603,0.89681 -4.66307,1.08379 -23.70249,3.92651 -13.39703,-0.81677 5.38861,-1.51196 16.03901,-4.40597 20.36137,-7.7768 z M 246.23522,117.91203 c -0.28716,0.0113 -2.24347,2.00551 -5.69623,4.95748 -3.12878,2.67498 -8.54301,4.73678 -16.08435,11.27048 -7.13393,6.18073 4.78496,3.02839 -19.58227,18.30017 -1.33764,0.83834 -1.70645,1.21293 -1.77405,1.80196 -0.14236,1.24163 0.3756,1.58889 2.13475,1.42937 2.85075,-0.25849 6.92829,-2.70523 13.54388,-8.12612 4.76291,-3.90279 6.60217,-4.80091 13.86788,-6.77478 4.18916,-1.13807 8.21111,-1.77701 9.38858,-1.49138 1.38772,0.33664 2.35386,1.91374 2.35386,3.84265 0,2.34694 -2.12493,4.26706 -6.68331,6.0384 -2.50138,0.97202 -3.2518,1.40287 -4.5558,2.61844 -1.68759,1.57316 -1.80829,2.18508 -0.5271,2.67219 0.77836,0.29593 5.4891,-0.49218 8.97103,-1.5012 2.28575,-0.66239 10.59499,-3.73788 13.9051,-5.14646 1.01695,-0.43275 1.95279,-0.78703 2.07997,-0.78703 0.12718,0 -0.42143,1.07692 -1.21956,2.39314 -1.79549,2.96105 -2.65726,4.65087 -3.45922,6.78149 l -0.62219,1.6521 0.58188,0.40773 c 1.266,0.88674 3.03707,0.30237 11.31197,-3.73311 8.10429,-3.95228 10.22941,-4.59093 15.28589,-4.59093 4.81123,0 7.82448,0.75411 13.28911,3.32434 4.06195,1.91049 4.81729,2.11067 8.89093,2.358 2.53105,0.15368 2.99819,0.1179 3.37344,-0.25735 1.16301,-1.163 0.46229,-1.73436 -4.85603,-3.95945 -1.96453,-0.82192 -3.98859,-1.7685 -4.49792,-2.10375 -0.50932,-0.33524 -2.77151,-2.42872 -5.02708,-4.65191 -2.71644,-2.67744 -5.0527,-4.70074 -6.92,-5.99291 -8.42764,-6.64986 -20.8924,-12.56716 -24.85726,-14.4684 -5.54478,-2.65883 -9.30012,-6.39414 -12.6159,-6.26316 z m -54.70017,42.65257 c -0.26025,-0.42109 0.41162,-1.07745 1.67725,-1.63857 1.05595,-0.46815 1.18896,-0.47434 1.78594,-0.0832 0.80198,0.52547 0.82085,1.05101 0.057,1.58605 -0.66872,0.46839 -3.25299,0.56801 -3.52017,0.13571 z m -93.651958,-2.09961 c -0.62757,-1.01543 2.705398,-3.45446 4.205928,-3.07785 1.43944,0.36128 1.54445,2.22226 0.16562,2.93528 -0.87127,0.45055 -4.115808,0.55637 -4.371548,0.14257 z m 8.375098,-5.53968 c -0.31589,-0.31588 -0.18588,-2.46372 0.20587,-3.40131 0.57228,-1.36965 1.65973,-2.92773 4.29037,-4.91001 2.2569,-1.70066 4.76361,-4.74622 6.47543,-6.2549 2.56263,-2.25852 8.15002,-7.28407 8.15002,-7.28407 2.67578,-1.40933 4.60825,-3.2025 6.54363,-5.36173 l 3.85726,-4.30341 c 10.6365,-12.04287 21.16203,-18.88113 31.10373,-30.380375 2.52835,-2.35534 4.5614,-4.60037 5.65743,-4.6026 2.57688,1.42812 4.9959,3.84505 7.29201,5.77968 3.13417,2.62993 3.5116,3.64124 10.92899,10.594395 2.6357,2.4307 4.51855,4.60253 7.12882,8.22299 0.94589,1.31194 1.77933,2.38597 1.85209,2.38673 0.0728,7.6e-4 1.68569,2.07284 2.13145,2.5446 5.61029,5.9375 7.5393,12.18868 9.98868,11.5983 0.75229,-0.18133 1.14574,0.64042 1.2337,0.91757 0.29847,0.94039 -0.45865,2.97549 -1.81592,4.88115 -0.7433,1.04362 -1.67086,2.3871 -2.06125,2.98551 -0.49323,0.75605 -1.81663,2.16157 -3.40874,2.23173 -2.14263,0.0944 -3.94222,-1.6431 -4.84797,-1.64076 -2.39563,0.006 -4.48311,3.00225 -5.45635,3.51873 -1.38167,0.73321 -2.43047,0.92922 -4.19573,1.1298 -1.24346,0.14129 -2.58111,0.65106 -3.37679,0.93072 -2.76544,0.97198 -6.66769,3.47256 -9.3839,6.01326 -1.59211,1.75514 -1.62348,0.92547 -6.77672,1.48055 l -0.1843,-0.7343 c -0.25544,-1.01775 0.73215,-2.92587 2.86302,-5.53162 0.93977,-1.1492 2.32918,-3.11374 3.08759,-4.36562 0.75841,-1.25188 2.38425,-3.74786 3.61298,-5.54661 1.22872,-1.79876 2.35102,-3.60602 2.49399,-4.01615 0.52939,-1.5186 -0.75907,-2.36371 -3.6152,-2.37121 -1.8725,-0.005 -4.55582,-0.47745 -5.52541,-0.97304 -0.45353,-0.2318 -1.32326,-0.76966 -1.81754,-1.31145 -3.35189,-2.64484 -6.60959,1.6079 -9.25264,3.44144 -0.2587,0.16156 -0.34886,0.74244 -0.47036,0.61452 -1.15894,-1.2202 -2.39983,-2.71637 -4.69652,-4.11799 0.2471,-1.33866 1.7091,-2.7877 2.82108,-3.9292 0.21616,-0.2219 5.72928,-2.40776 6.15815,-4.92523 0.44781,-2.62868 -4.45885,-6.39948 -6.46018,-6.68301 -2.17503,-0.30814 -8.24465,3.2538 -9.85894,7.42551 -0.90628,0.67261 -2.59345,0.5102 -3.78054,0.97841 -1.20833,0.47658 -10.72112,10.6032 -11.08056,10.87057 -4.97245,3.6988 -8.1938,7.65756 -12.38347,11.77293 -3.05151,2.9974 -11.03721,10.25015 -11.98315,11.0386 -1.15568,0.96327 -4.88712,1.84489 -5.44544,1.28657 z m 95.25,-57.480755 c -0.60111,-0.60111 0.2426,-2.33207 0.99582,-2.04303 0.49477,0.18986 0.70986,1.13983 0.39239,1.73302 -0.25635,0.47901 -1.04345,0.65477 -1.38821,0.31001 z m 3.59392,-3.71276 c 0,-0.41579 1.57761,-1.73326 2.0755,-1.73326 0.6975,0 -0.009,1.19827 -1.01187,1.71706 -0.95655,0.49465 -1.06363,0.49628 -1.06363,0.0162 z"
         transform="translate(492.38032,70.2291)" /><path
         id="path21-3"
         style="display:inline;fill:#1a424a;fill-opacity:1;fill-rule:nonzero;stroke:none;stroke-width:0.0522033"
         d="m -4863.3974,1902.5925 h 9.9291 c 8.791,0 15.3791,2.4378 19.7747,7.3136 4.3954,4.8758 6.5932,11.1037 6.5932,18.6888 0,7.7052 -2.725,13.9644 -8.175,18.7828 -5.4449,4.8132 -13.6199,7.2199 -24.5095,7.2199 -7.6478,0 -14.7632,-0.8876 -21.3566,-2.6625 -6.588,-1.7749 -12.0222,-4.3172 -16.2977,-7.6268 l 5.1472,-3.9727 c 7.5225,5.1733 18.36,7.7626 32.5071,7.7626 9.0833,0 15.7236,-1.7906 19.905,-5.3718 4.1868,-3.5812 6.2749,-8.2899 6.2749,-14.1315 0,-5.8362 -1.566,-10.5503 -4.693,-14.1315 -3.1322,-3.581 -8.2167,-5.3716 -15.2591,-5.3716 h -9.8403 c -12.3407,0 -21.9881,-3.6855 -28.9364,-11.062 -6.9534,-7.3711 -10.4302,-16.6842 -10.4302,-27.9391 0,-11.2552 4.004,-20.5735 12.0067,-27.9446 8.0081,-7.3763 19.2317,-11.0618 33.6817,-11.0618 9.6264,0 18.6104,1.3258 26.9473,3.9727 8.3371,2.6466 15.2748,6.3792 20.8137,11.1976 l -5.0586,4.0614 c -4.9332,-4.0353 -11.1349,-7.1624 -18.6001,-9.3915 -7.4597,-2.2238 -15.4993,-3.3409 -24.1023,-3.3409 -12.7062,0 -22.4109,3.0381 -29.119,9.1198 -6.7134,6.0818 -10.07,13.8757 -10.07,23.3873 0,9.4488 2.8293,17.2271 8.4882,23.3348 5.6588,6.1131 13.7818,9.167 24.379,9.167 z m 0,-13.0039 h 10.2893 c 12.2208,0 21.7741,3.7325 28.6701,11.1976 6.8908,7.465 10.3362,16.7366 10.3362,27.8087 0,11.2551 -4.0039,20.5735 -12.0068,27.9445 -8.0079,7.3764 -19.2317,11.062 -33.6763,11.062 -9.6316,0 -18.6314,-1.3261 -26.9997,-3.9727 -8.3681,-2.6468 -15.3165,-6.3793 -20.8552,-11.1976 l 5.0585,-4.0615 c 4.9331,4.0353 11.1454,7.1623 18.6419,9.3915 7.4963,2.2239 15.546,3.3408 24.1545,3.3408 12.6959,0 22.4057,-3.0434 29.1137,-9.1198 6.7135,-6.0817 10.0703,-13.8757 10.0703,-23.3872 0,-9.3912 -2.814,-17.1538 -8.4413,-23.2931 -5.6277,-6.1391 -13.6826,-9.2086 -24.1546,-9.2086 h -10.2006 c -8.7911,0 -15.379,-2.4066 -19.7747,-7.225 -4.3954,-4.8132 -6.5932,-11.0724 -6.5932,-18.7775 0,-7.7055 2.725,-13.9646 8.175,-18.7829 5.4448,-4.8132 13.6147,-7.2198 24.5147,-7.2198 7.6426,0 14.7423,0.8876 21.3042,2.6625 6.562,1.7749 11.9805,4.3171 16.251,7.6269 l -5.1422,3.9726 c -7.5275,-5.1733 -18.3284,-7.7626 -32.413,-7.7626 -9.0938,0 -15.7289,1.7906 -19.9104,5.3717 -4.1867,3.5812 -6.2749,8.29 -6.2749,14.1316 0,5.8988 1.5452,10.6234 4.6462,14.1731 3.1008,3.5499 8.1752,5.3248 15.2173,5.3248 z m 0,26.0077 h 9.9291 c 4.6356,0 7.9767,1.2008 10.023,3.6074 2.0464,2.4118 3.0695,5.5386 3.0695,9.3912 0,8.6658 -6.468,13.004 -19.4091,13.004 -12.2207,0 -21.3982,-1.8062 -27.5426,-5.4187 l 5.2413,-3.9728 c 4.2128,1.9263 11.6467,2.8868 22.3013,2.8868 5.1733,0 8.65,-0.569 10.425,-1.7121 1.7749,-1.1434 2.6624,-2.7409 2.6624,-4.7872 0,-1.9836 -0.496,-3.5653 -1.4878,-4.7398 -0.9919,-1.1747 -2.8139,-1.7595 -5.4605,-1.7595 h -9.7516 c -8.3056,0 -15.8178,-1.3572 -22.5259,-4.0665 -6.7133,-2.7042 -12.2207,-6.4367 -16.5274,-11.1926 -4.3017,-4.7556 -7.5957,-10.2629 -9.8823,-16.5222 -2.2917,-6.2593 -3.4349,-13.0039 -3.4349,-20.2236 0,-5.7789 0.8144,-11.2552 2.4378,-16.4338 1.629,-5.1785 4.0773,-9.9343 7.3607,-14.2671 3.2786,-4.3328 7.225,-8.0812 11.8294,-11.2395 4.6042,-3.1635 10.0805,-5.6275 16.4284,-7.4024 6.3533,-1.7748 13.2284,-2.6675 20.636,-2.6675 11.6153,0 22.4788,1.7643 32.5905,5.2831 10.1119,3.5236 18.5375,8.4411 25.2822,14.7629 l -5.2361,3.884 c -6.1391,-5.5386 -13.8128,-9.8301 -23.0268,-12.8682 -9.2088,-3.0382 -19.0804,-4.5574 -29.6098,-4.5574 -8.2481,0 -15.6974,1.1851 -22.3482,3.5655 -6.6508,2.3753 -12.1321,5.6432 -16.4337,9.7934 -4.3068,4.1553 -7.6165,8.9687 -9.929,14.4498 -2.3179,5.4762 -3.4768,11.3753 -3.4768,17.6972 0,8.483 1.7122,16.1308 5.1419,22.9329 3.435,6.802 8.6711,12.2626 15.7132,16.3866 7.0424,4.1241 15.3791,6.1861 25.0108,6.1861 z m 10.9262,-32.5072 h -10.9262 c -4.6357,0 -7.9768,-1.1849 -10.023,-3.5654 -2.0464,-2.3752 -3.0696,-5.523 -3.0696,-9.433 0,-8.671 6.468,-13.004 19.4144,-13.004 12.153,0 21.3042,1.8062 27.4433,5.4188 l -5.2357,3.9727 c -4.213,-1.9265 -11.6155,-2.8921 -22.2076,-2.8921 -5.1786,0 -8.6553,0.5741 -10.4302,1.7174 -1.7749,1.1434 -2.6625,2.7408 -2.6625,4.7872 0,2.0463 0.4804,3.6384 1.4409,4.7817 0.9658,1.1432 2.7407,1.7177 5.33,1.7177 h 11.1924 c 8.1281,0 15.4574,1.3833 21.9881,4.1499 6.5306,2.7721 11.9024,6.5465 16.1151,11.3335 4.2128,4.7869 7.4338,10.2945 9.6628,16.5223 2.224,6.233 3.341,12.8996 3.341,19.9991 0,5.7788 -0.8142,11.2551 -2.4376,16.4337 -1.6288,5.1786 -4.0825,9.9292 -7.3609,14.2671 -3.2784,4.333 -7.2197,8.0813 -11.8293,11.2395 -4.6043,3.1582 -10.0803,5.6274 -16.4285,7.4024 -6.353,1.7749 -13.2281,2.6625 -20.6306,2.6625 -11.6206,0 -22.4997,-1.7595 -32.6428,-5.2779 -10.1432,-3.5237 -18.5845,-8.4464 -25.3239,-14.7631 l 5.236,-3.884 c 6.1391,5.5388 13.8287,9.8301 23.0687,12.8683 9.2399,3.0381 19.1273,4.5573 29.662,4.5573 8.2429,0 15.6924,-1.185 22.343,-3.5655 6.6507,-2.3753 12.1269,-5.6432 16.4337,-9.7986 4.3015,-4.1501 7.6112,-8.9686 9.9342,-14.4447 2.3128,-5.4761 3.4715,-11.3751 3.4715,-17.697 0,-8.3631 -1.6809,-15.9377 -5.0532,-22.7084 -3.3723,-6.7708 -8.504,-12.2627 -15.3948,-16.4755 -6.8908,-4.2128 -15.0346,-6.3219 -24.4207,-6.3219 m -118.8463,39.1625 c 0,-2.3701 -0.7157,-3.9537 -2.1452,-4.7454 -1.431,-0.7919 -3.5149,-1.1877 -6.2539,-1.1877 h -42.3604 v -6.5717 h 42.3604 c 9.9811,0 14.9724,4.17 14.9724,12.5048 0,4.6872 -1.3698,8.0654 -4.1083,10.1346 -2.7389,2.0692 -6.3605,3.1038 -10.8641,3.1038 h -42.3604 v -6.5718 h 42.3604 c 5.5988,0 8.3991,-2.2222 8.3991,-6.6666 z m -54.4111,52.6792 h -6.5733 v -111.7456 h 52.5853 c 4.1384,0 7.6692,1.2669 10.5902,3.79 2.9217,2.5284 4.3822,5.6744 4.3822,9.4485 0,4.9934 -1.3698,8.5986 -4.1083,10.8209 -2.7389,2.2222 -6.3605,3.3308 -10.8641,3.3308 h -42.3604 v -6.5718 h 42.3604 c 5.5988,0 8.3991,-2.5284 8.3991,-7.5799 0,-2.0692 -0.7917,-3.6949 -2.3737,-4.8826 -1.5836,-1.1877 -3.5915,-1.7788 -6.0254,-1.7788 h -46.012 z m 3.6516,-77.7837 h 42.3604 c 6.0254,0 11.1223,-1.8106 15.2918,-5.4316 4.1684,-3.6211 6.2539,-8.72 6.2539,-15.2918 0,-5.2943 -2.1768,-9.9183 -6.5273,-13.8772 -4.3527,-3.9535 -9.3578,-5.933 -15.0184,-5.933 h -59.1586 v 118.3173 h -6.5728 v -124.889 h 65.7314 c 7.4865,0 14.0434,2.6339 19.674,7.8966 5.6289,5.2627 8.4445,11.4279 8.4445,18.4853 0,5.5372 -1.2938,10.3775 -3.8797,14.5159 -2.5881,4.1383 -6.0713,7.3371 -10.453,9.5856 9.5541,3.41 14.3327,10.3459 14.3327,20.8131 0,8.282 -2.7385,14.9012 -8.2165,19.8577 -5.4775,4.9618 -12.112,7.4426 -19.902,7.4426 h -42.3604 v -6.5769 h 42.3604 c 6.0254,0 11.1223,-1.8052 15.2918,-5.4315 4.1684,-3.6159 6.2539,-8.7149 6.2539,-15.2919 0,-4.4391 -1.5835,-8.3664 -4.7474,-11.771 -3.1655,-3.4099 -7.8211,-5.3893 -13.968,-5.9383 -0.6091,0.063 -1.5518,0.09 -2.8303,0.09 h -42.3604 z m 83.6255,-20.7234 c 0,8.5248 -3.0124,16.2208 -9.0378,23.0986 6.0254,6.6932 9.0378,13.9669 9.0378,21.816 0,7.6116 -1.9029,14.5318 -5.7061,20.7709 -3.8042,6.2392 -8.8551,11.0795 -15.1545,14.5158 -6.2993,3.4416 -13.1006,5.1571 -20.4045,5.1571 h -42.3604 v -6.5718 h 42.3604 c 9.4949,0 17.6496,-3.1775 24.4668,-9.5381 6.8161,-6.3606 10.225,-14.4737 10.225,-24.3339 0,-3.526 -0.8984,-7.4374 -2.6931,-11.7288 -1.7957,-4.2913 -4.2766,-7.564 -7.4405,-9.8126 6.7559,-6.329 10.1336,-14.12 10.1336,-23.3732 0,-8.8837 -3.4691,-16.6008 -10.4076,-23.1409 -6.938,-6.5453 -15.0336,-9.8179 -24.2842,-9.8179 h -72.3053 v 131.4659 h -6.5727 v -138.0377 h 78.878 c 7.2426,0 14.0434,1.7841 20.4045,5.3418 6.359,3.5578 11.4258,8.3981 15.2005,14.5159 3.7731,6.1178 5.6601,12.6736 5.6601,19.6729 z m -1.5519,23.4629 c 5.4162,-7.2421 8.1252,-15.0648 8.1252,-23.4629 0,-8.2134 -2.1769,-15.8671 -6.5274,-22.9614 -4.3526,-7.0891 -10.2112,-12.7159 -17.5742,-16.8859 -7.365,-4.17 -15.2775,-6.255 -23.7368,-6.255 h -85.4513 v 144.6094 h -6.5733 v -151.1811 h 92.0246 c 9.6159,0 18.6082,2.37 26.9773,7.1207 8.368,4.7453 15.0326,11.1798 19.9938,19.3087 4.9597,8.1235 7.4401,16.8752 7.4401,26.2446 0,8.947 -2.5258,16.7961 -7.5773,23.5526 5.0515,7.0046 7.5773,14.12 7.5773,21.362 0,8.1606 -1.4606,15.6296 -4.3817,22.4178 -2.9216,6.7828 -6.8631,12.4308 -11.8228,16.9333 -4.9612,4.5026 -10.7269,8.0022 -17.3002,10.499 -6.5733,2.4967 -13.543,3.7424 -20.9065,3.7424 h -42.3604 v -6.5717 h 42.3604 c 6.3906,0 12.5074,-1.2036 18.3502,-3.6052 5.8427,-2.407 10.9238,-5.6744 15.2463,-9.818 4.3205,-4.1383 7.7741,-9.1265 10.3617,-14.9698 2.5864,-5.8433 3.8802,-12.0508 3.8802,-18.6278 0,-2.9189 -0.6852,-6.4345 -2.0544,-10.5412 -1.3693,-4.1066 -3.3935,-7.7434 -6.0708,-10.9105 m -142.2886,75.0442 h -7.1212 l -59.706,-151.1811 h 7.0294 z m -73.9484,-151.1811 59.7978,151.1811 h -7.0298 l -59.7979,-151.1811 z m -14.1506,0 59.7978,151.1811 h -7.1212 l -59.7065,-151.1811 z m -10.225,106.8101 2.6478,-6.5717 h 22.4583 l 2.6471,6.5717 z m -5.1122,13.1488 2.5559,-6.5717 h 32.7747 l 2.8303,6.5717 z m -5.1127,13.1434 2.5564,-6.5717 h 43.0909 l 2.7385,6.5717 z m 17.8935,-73.2179 3.4696,9.2215 -32.41,82.0752 h -7.0293 z m -6.9385,-18.0735 3.4695,9.0367 -39.5305,100.3335 h -7.1208 z m -7.3034,-17.3451 3.743,8.398 -46.7426,118.3173 h -7.0293 z m -57.0588,126.7153 h -7.1207 l 59.7974,-151.1811 h 7.1212 l 59.7065,151.1811 h -7.0299 l -56.237,-142.3291 -56.2375,142.3291 m -74.1649,-151.1811 h 6.5733 v 118.3173 h 52.5853 v 6.5717 h -52.5853 v 6.5716 h 52.5853 v 6.5771 h -52.5853 v 6.5717 h 52.5853 v 6.5717 h -59.1586 z m -13.1467,0 h 6.5734 v 151.1811 h -6.5734 z m -13.146,0 h 6.5733 v 151.1811 h -6.5733 z m -13.1466,0 h 6.5733 v 151.1811 h -6.5733 v -151.1811 m -110.8517,151.1811 h -7.1213 l -59.706,-151.1811 h 7.0294 z m -73.9485,-151.1811 59.7978,151.1811 h -7.0298 l -59.7979,-151.1811 z m -14.1506,0 59.7978,151.1811 h -7.1211 l -59.7066,-151.1811 z m -10.225,106.8102 2.6478,-6.5718 h 22.4583 l 2.647,6.5718 z m -5.1121,13.1487 2.5558,-6.5718 h 32.7747 l 2.8303,6.5718 z m -5.1128,13.1435 2.5564,-6.5718 h 43.0909 l 2.7385,6.5718 z m 17.8935,-73.2181 3.4696,9.2216 -32.4099,82.0752 h -7.0294 z m -6.9385,-18.0734 3.4695,9.0367 -39.5306,100.3335 h -7.1206 z m -7.3033,-17.3451 3.7429,8.3979 -46.7426,118.3174 h -7.0293 z m -57.0589,126.7153 h -7.1207 l 59.7974,-151.1811 h 7.1212 l 59.7066,151.1811 h -7.0299 l -56.2371,-142.3292 -56.2375,142.3292 m -23.554,-151.7711 h 6.5718 v 151.1811 h -6.5718 z m -13.1487,0 h 6.577 v 151.1811 h -6.577 z m -13.1434,0 h 6.5717 v 151.1811 h -6.5717 z m -13.1487,0 h 6.5717 v 151.1811 h -6.5717 v -151.1811 m -17.3246,0.59 h 7.1207 l -59.7999,151.1811 h -7.031 z m -14.062,0 h 7.0311 l -59.8,151.1811 h -7.0258 z m -14.2413,0 h 7.1207 l -59.7947,151.1811 h -7.0309 z m -51.766,82.0752 -3.468,9.2215 -35.9676,-91.2967 h 7.031 z m -6.936,18.2582 -3.468,9.0369 -43.1833,-109.3703 h 7.1207 z m -7.0309,17.9839 -3.7425,8.3981 -50.0295,-126.7154 h 7.0309 z m -67.9236,-118.3173 h 7.1207 l 56.2423,142.3292 56.2369,-142.3292 h 7.0257 l -59.7049,151.1811 h -7.1207 l -59.8,-151.1811 m -1.7842,151.1811 h -7.1213 l -59.706,-151.1811 h 7.0294 z m -73.9485,-151.1811 59.7978,151.1811 h -7.0298 l -59.7979,-151.1811 z m -14.1507,0 59.7979,151.1811 h -7.1212 l -59.7064,-151.1811 z m -10.2249,106.8101 2.6477,-6.5717 h 22.4583 l 2.6473,6.5717 z m -5.1122,13.1488 2.5558,-6.5717 h 32.7748 l 2.8303,6.5717 z m -5.1127,13.1434 2.5564,-6.5717 h 43.0909 l 2.7384,6.5717 z m 17.8934,-73.2179 3.4697,9.2216 -32.41,82.0751 h -7.0293 z m -6.9384,-18.0735 3.4695,9.0367 -39.5305,100.3335 h -7.1208 z m -7.3033,-17.3451 3.7429,8.398 -46.7426,118.3173 h -7.0293 z m -57.059,126.7153 h -7.1206 l 59.7974,-151.1811 h 7.1212 l 59.7065,151.1811 h -7.0298 l -56.2371,-142.3291 -56.2376,142.3291 m -21.2591,-78.9314 h 6.4994 v 78.1014 h -6.4994 z m -13.0039,0 h 6.4996 v 78.1014 h -6.4996 z m -12.9985,0 h 6.4991 v 78.1014 h -6.4991 z m -6.5045,0 v 78.1014 c -11.4326,4.3331 -23.2934,6.4993 -35.5711,6.4993 -10.6547,0 -20.8554,-1.9576 -30.6066,-5.8675 -9.7526,-3.9102 -18.3289,-9.3445 -25.7317,-16.298 -7.4082,-6.9535 -13.3219,-15.5565 -17.7432,-25.8198 -4.4215,-10.2634 -6.6357,-21.3566 -6.6357,-33.2749 0,-11.0146 2.1508,-21.5336 6.4526,-31.5569 4.307,-10.0178 10.0846,-18.6571 17.337,-25.9074 7.2503,-7.2579 15.8897,-13.0355 25.9129,-17.3371 10.0233,-4.3017 20.5422,-6.4581 31.5568,-6.4581 13.7246,0 26.4831,3.1955 38.2813,9.5736 11.798,6.3799 21.4294,15.0452 28.8945,26.0038 l -5.4187,3.5182 c -6.8647,-10.0494 -15.7287,-17.9956 -26.5924,-23.8368 -10.8637,-5.8357 -22.5881,-8.7536 -35.1647,-8.7536 -10.1113,0 -19.7898,1.9675 -29.0305,5.9136 -9.2398,3.942 -17.2011,9.2507 -23.8764,15.9337 -6.683,6.6806 -11.9964,14.642 -15.9391,23.8819 -3.9407,9.2398 -5.9137,18.9136 -5.9137,29.0251 0,10.8954 2.0313,21.0692 6.0913,30.5185 4.0681,9.4539 9.4813,17.368 16.2565,23.7473 6.7717,6.3795 14.6387,11.3909 23.6117,15.0346 8.9636,3.6385 18.2924,5.4605 27.9859,5.4605 10.1749,0 19.9522,-1.5923 29.3443,-4.787 v -6.2279 c -8.9691,3.0122 -18.3916,4.5157 -28.2579,4.5157 -7.1673,0 -14.1315,-1.0078 -20.9024,-3.028 -6.7708,-2.015 -13.0357,-4.9958 -18.7823,-8.9372 -5.7481,-3.9413 -10.7759,-8.6344 -15.0773,-14.0845 -4.3054,-5.4451 -7.6733,-11.7977 -10.1104,-19.049 -2.4395,-7.2564 -3.6598,-14.9716 -3.6598,-23.163 0,-12.3356 3.054,-23.7422 9.1666,-34.2191 6.1075,-10.4714 14.3981,-18.7624 24.8746,-24.8746 10.4721,-6.1072 21.8781,-9.1609 34.2189,-9.1609 11.5584,0 22.3017,2.6928 32.231,8.0809 9.9342,5.3858 18.0257,12.6855 24.2904,21.8934 l -5.4188,3.5239 c -5.659,-8.3106 -12.9881,-14.8827 -21.983,-19.7286 -8.9999,-4.8492 -18.7101,-7.272 -29.1196,-7.272 -8.3674,0 -16.3758,1.625 -24.0179,4.8764 -7.6427,3.2516 -14.2205,7.6327 -19.7275,13.1397 -5.5074,5.5069 -9.8876,12.0849 -13.135,19.7283 -3.2515,7.642 -4.8765,15.6504 -4.8765,24.0126 0,7.5278 1.0971,14.5804 3.2952,21.1745 2.1979,6.5929 5.2355,12.3407 9.1202,17.2477 3.8782,4.9018 8.4089,9.1148 13.5885,12.6385 5.1725,3.5184 10.8155,6.1861 16.929,7.987 6.1077,1.8116 12.3823,2.7094 18.824,2.7094 9.9923,0 19.5038,-1.6811 28.53,-5.0535 v -6.4991 c -8.9061,3.4299 -18.2093,5.1418 -27.8977,5.1418 -7.3455,0 -14.3562,-1.2477 -21.0377,-3.743 -6.6829,-2.5004 -12.6284,-6.0345 -17.833,-10.6128 -5.2045,-4.573 -9.3441,-10.4094 -12.4145,-17.5145 -3.0684,-7.0995 -4.6046,-14.9248 -4.6046,-23.476 0,-9.9911 2.4702,-19.2313 7.4029,-27.714 4.933,-8.4891 11.6463,-15.2027 20.1352,-20.1352 8.4882,-4.9382 17.7284,-7.4085 27.7194,-7.4085 9.3288,0 18.0106,2.1674 26.0499,6.5052 8.0342,4.3324 14.5805,10.2317 19.634,17.6969 l -5.4136,3.5192 c -4.4583,-6.4994 -10.2214,-11.6626 -17.2949,-15.4835 -7.0738,-3.8212 -14.732,-5.7326 -22.9754,-5.7326 -8.8481,0 -17.007,2.1815 -24.4678,6.5469 -7.4643,4.3633 -13.3796,10.279 -17.7432,17.7377 -4.3651,7.4662 -6.5468,15.6197 -6.5468,24.4679 0,6.1395 0.8724,11.8609 2.6204,17.1542 1.7449,5.2988 4.1514,9.8771 7.2196,13.7242 3.0704,3.8529 6.6665,7.1363 10.7905,9.8456 4.1246,2.7043 8.5615,4.7405 13.3181,6.0924 4.7551,1.3519 9.6933,2.0308 14.8092,2.0308 10.1701,0 19.6813,-2.0152 28.53,-6.0504 v -6.2277 c -8.546,3.7898 -17.7861,5.6847 -27.7204,5.6847 -5.7164,0 -11.1032,-0.8666 -16.1573,-2.6152 -5.0577,-1.7437 -9.6149,-4.3018 -13.6828,-7.674 -4.0604,-3.3726 -7.2811,-7.8095 -9.6569,-13.3171 -2.381,-5.5074 -3.5708,-11.7254 -3.5708,-18.6475 0,-5.7163 1.1172,-11.1767 3.3404,-16.3868 2.2296,-5.2047 5.2415,-9.7042 9.0313,-13.4998 3.7902,-3.7899 8.2905,-6.7969 13.4998,-9.0258 5.2047,-2.2287 10.6652,-3.3404 16.3867,-3.3404 7.1631,0 13.8135,1.6703 19.9523,5.0107 6.1395,3.3422 11.1351,7.867 14.9881,13.5885 l -5.3249,3.5192 c -3.2527,-4.8133 -7.4807,-8.6186 -12.6855,-11.4225 -5.2096,-2.7982 -10.8529,-4.1962 -16.93,-4.1962 -9.8707,0 -18.3018,3.4919 -25.2821,10.4764 -6.9837,6.9803 -10.4709,15.4058 -10.4709,25.2767 0,6.0825 0.9919,11.454 2.9751,16.1206 1.9883,4.6621 4.7141,8.3943 8.1747,11.1926 3.4615,2.7982 7.3134,4.9074 11.5584,6.3217 4.2385,1.4146 8.8013,2.1198 13.6771,2.1198 9.9913,0 19.2889,-2.0726 27.8977,-6.228 v -32.8672 h 6.499"
         transform="matrix(0.26458333,0,0,0.26458333,2220.8153,-313.34337)" /><path
         id="path29"
         style="display:inline;opacity:0.47;fill:#000000;fill-opacity:1;fill-rule:nonzero;stroke:none;stroke-width:0.0138121;filter:url(#filter29)"
         d="m 441.66112,127.45513 h 2.62708 c 2.32595,0 4.06905,0.64501 5.23205,1.93506 1.16295,1.29006 1.74445,2.93786 1.74445,4.94475 0,2.03866 -0.72099,3.69474 -2.16297,4.96961 -1.44063,1.27349 -3.6036,1.91027 -6.4848,1.91027 -2.02348,0 -3.9061,-0.23485 -5.6506,-0.70446 -1.74308,-0.4696 -3.18088,-1.14226 -4.3121,-2.01792 l 1.36186,-1.05111 c 1.99033,1.36877 4.85775,2.05385 8.60084,2.05385 2.40329,0 4.1602,-0.47376 5.26653,-1.42128 1.10776,-0.94753 1.66023,-2.19337 1.66023,-3.73896 0,-1.54417 -0.41433,-2.79144 -1.24169,-3.73896 -0.82872,-0.94748 -2.174,-1.42124 -4.0373,-1.42124 h -2.60358 c -3.26514,0 -5.81768,-0.97512 -7.65609,-2.92682 -1.83975,-1.95027 -2.75966,-4.41436 -2.75966,-7.39222 0,-2.97794 1.0594,-5.44341 3.17678,-7.39368 2.11881,-1.95164 5.08838,-2.92676 8.91161,-2.92676 2.54699,0 4.92401,0.35078 7.12981,1.05111 2.20586,0.70024 4.04146,1.68783 5.50696,2.9627 l -1.33842,1.07457 c -1.30525,-1.06767 -2.94611,-1.89505 -4.92128,-2.48483 -1.97371,-0.58838 -4.10086,-0.88395 -6.37707,-0.88395 -3.36185,0 -5.92955,0.80383 -7.7044,2.41295 -1.77625,1.60914 -2.66435,3.67128 -2.66435,6.18789 0,2.5 0.74858,4.558 2.24583,6.174 1.49723,1.61742 3.64644,2.42543 6.45028,2.42543 z m 0,-3.44061 h 2.72238 c 3.23342,0 5.76106,0.98756 7.58563,2.9627 1.82319,1.97511 2.73478,4.42822 2.73478,7.35772 0,2.97791 -1.05936,5.4434 -3.17679,7.39364 -2.11876,1.95168 -5.08839,2.92683 -8.91019,2.92683 -2.54836,0 -4.92956,-0.35087 -7.14367,-1.05111 -2.21406,-0.7003 -4.05249,-1.68786 -5.51794,-2.9627 l 1.33839,-1.07461 c 1.30522,1.06768 2.94889,1.89503 4.93234,2.48484 1.9834,0.5884 4.11321,0.88392 6.39088,0.88392 3.35912,0 5.92817,-0.80524 7.703,-2.41295 1.77628,-1.60912 2.66443,-3.67128 2.66443,-6.18786 0,-2.48476 -0.74454,-4.53861 -2.23343,-6.16297 -1.48899,-1.6243 -3.62018,-2.43644 -6.3909,-2.43644 h -2.69891 c -2.32598,0 -4.06903,-0.63675 -5.23206,-1.91162 -1.16294,-1.27349 -1.74445,-2.92957 -1.74445,-4.96821 0,-2.03875 0.72099,-3.6948 2.16297,-4.96964 1.44061,-1.27349 3.60223,-1.91024 6.48618,-1.91024 2.02211,0 3.90057,0.23484 5.63674,0.70445 1.7362,0.46961 3.16984,1.14223 4.29974,2.01795 l -1.36054,1.05109 c -1.99165,-1.36877 -4.84939,-2.05386 -8.57594,-2.05386 -2.40606,0 -4.1616,0.47376 -5.26796,1.42126 -1.10773,0.94753 -1.66023,2.1934 -1.66023,3.73899 0,1.56072 0.40883,2.81077 1.22931,3.74997 0.82042,0.93924 2.16302,1.40885 4.02624,1.40885 z m 0,6.8812 h 2.62708 c 1.2265,0 2.1105,0.31771 2.65191,0.95446 0.54145,0.63812 0.81214,1.46542 0.81214,2.48476 0,2.29282 -1.71132,3.44064 -5.13532,3.44064 -3.2334,0 -5.66161,-0.47789 -7.28731,-1.4337 l 1.38676,-1.05114 c 1.11463,0.50967 3.08152,0.7638 5.90055,0.7638 1.36877,0 2.28864,-0.15055 2.75828,-0.45299 0.46961,-0.30253 0.70443,-0.7252 0.70443,-1.26661 0,-0.52483 -0.13124,-0.94332 -0.39365,-1.25408 -0.26244,-0.3108 -0.74451,-0.46553 -1.44476,-0.46553 h -2.58011 c -2.19752,0 -4.18513,-0.35909 -5.95998,-1.07593 -1.77622,-0.71548 -3.23339,-1.70304 -4.37287,-2.96137 -1.13816,-1.25826 -2.0097,-2.7154 -2.61469,-4.3715 -0.60635,-1.65611 -0.90882,-3.44062 -0.90882,-5.35083 0,-1.529 0.21548,-2.97794 0.645,-4.34811 0.43101,-1.37014 1.07879,-2.62845 1.94752,-3.77484 0.86746,-1.14638 1.91161,-2.13815 3.12986,-2.97378 1.2182,-0.83701 2.66713,-1.48894 4.34668,-1.95855 1.68098,-0.46958 3.50002,-0.70578 5.45994,-0.70578 3.07322,0 5.94752,0.46681 8.62291,1.39782 2.67544,0.93229 4.90471,2.23338 6.68925,3.90602 l -1.38539,1.02764 c -1.6243,-1.46542 -3.65464,-2.60088 -6.09251,-3.40471 -2.43649,-0.80386 -5.04835,-1.20581 -7.83426,-1.20581 -2.18231,0 -4.15327,0.31356 -5.91296,0.94337 -1.75969,0.62846 -3.20995,1.4931 -4.34808,2.59117 -1.13951,1.09942 -2.0152,2.37297 -2.62705,3.82318 -0.61328,1.44891 -0.9199,3.00971 -0.9199,4.68238 0,2.24446 0.45302,4.26794 1.36046,6.06766 0.90884,1.7997 2.29423,3.24448 4.15745,4.33562 1.8633,1.09117 4.06905,1.63674 6.61744,1.63674 z m 2.89089,-8.60086 h -2.89089 c -1.22653,0 -2.11053,-0.3135 -2.65192,-0.94335 -0.54144,-0.62843 -0.81216,-1.46129 -0.81216,-2.49581 0,-2.2942 1.71132,-3.44064 5.13672,-3.44064 3.21548,0 5.63674,0.47789 7.26104,1.43372 l -1.38528,1.05111 c -1.11469,-0.50972 -3.07326,-0.7652 -5.87576,-0.7652 -1.37017,0 -2.29004,0.1519 -2.75965,0.4544 -0.46961,0.30252 -0.70446,0.72517 -0.70446,1.26661 0,0.54142 0.12711,0.96266 0.38124,1.26516 0.25554,0.30247 0.72515,0.45447 1.41023,0.45447 h 2.96132 c 2.15056,0 4.08977,0.366 5.81769,1.098 1.72789,0.73345 3.14917,1.73209 4.26378,2.99865 1.11464,1.26654 1.96686,2.72376 2.55662,4.37153 0.58843,1.64915 0.88397,3.41302 0.88397,5.29143 0,1.52897 -0.21542,2.97791 -0.64494,4.34808 -0.43096,1.37017 -1.08017,2.6271 -1.94758,3.77484 -0.86741,1.14644 -1.91021,2.13817 -3.12983,2.97378 -1.21822,0.83561 -2.66708,1.48892 -4.34671,1.95855 -1.6809,0.46961 -3.49993,0.70446 -5.45851,0.70446 -3.07462,0 -5.95305,-0.46554 -8.63674,-1.39645 -2.68372,-0.93231 -4.91715,-2.23478 -6.70028,-3.90607 l 1.38535,-1.02764 c 1.62431,1.46547 3.65885,2.60088 6.1036,3.40474 2.44472,0.80383 5.06076,1.20578 7.84807,1.20578 2.18093,0 4.15195,-0.31353 5.91158,-0.94337 1.75967,-0.62846 3.20858,-1.4931 4.34809,-2.59255 1.1381,-1.09804 2.01379,-2.37294 2.62842,-3.82182 0.61193,-1.44889 0.9185,-3.00966 0.9185,-4.68233 0,-2.21274 -0.44474,-4.21685 -1.33699,-6.00827 -0.89226,-1.79144 -2.25002,-3.2445 -4.07321,-4.35914 -1.82319,-1.11464 -3.9779,-1.67267 -6.46131,-1.67267 m -31.44475,10.36174 c 0,-0.62708 -0.18936,-1.04608 -0.56758,-1.25555 -0.37862,-0.20952 -0.92999,-0.31424 -1.65468,-0.31424 h -11.20786 v -1.73877 H 410.885 c 2.64083,0 3.96145,1.10332 3.96145,3.30856 0,1.24016 -0.36243,2.13398 -1.08699,2.68145 -0.72467,0.54748 -1.68288,0.82121 -2.87446,0.82121 h -11.20786 v -1.73878 H 410.885 c 1.48135,0 2.22226,-0.58796 2.22226,-1.76388 z m -14.39627,13.93804 h -1.73918 V 117.02862 H 410.885 c 1.09495,0 2.02914,0.3352 2.80199,1.00277 0.77303,0.66897 1.15946,1.50135 1.15946,2.49992 0,1.32117 -0.36243,2.27504 -1.08699,2.86303 -0.72467,0.58795 -1.68288,0.88127 -2.87446,0.88127 h -11.20786 v -1.73879 H 410.885 c 1.48135,0 2.22226,-0.66897 2.22226,-2.00551 0,-0.54748 -0.20947,-0.97761 -0.62804,-1.29186 -0.41899,-0.31424 -0.95025,-0.47064 -1.59422,-0.47064 h -12.17401 z m 0.96615,-20.58027 H 410.885 c 1.59422,0 2.94277,-0.47905 4.04595,-1.43711 1.10289,-0.95808 1.65468,-2.30716 1.65468,-4.04595 0,-1.40079 -0.57594,-2.62422 -1.72701,-3.67168 -1.15165,-1.04603 -2.47592,-1.56977 -3.97362,-1.56977 h -15.65238 v 31.30478 h -1.73905 V 113.5511 H 410.885 c 1.9808,0 3.71565,0.69688 5.20541,2.0893 1.48932,1.39243 2.23428,3.02364 2.23428,4.89091 0,1.46505 -0.34232,2.74571 -1.02651,3.84066 -0.68477,1.09493 -1.60636,1.94128 -2.76569,2.53619 2.52786,0.90223 3.7922,2.73735 3.7922,5.5068 0,2.19128 -0.72457,3.94261 -2.17395,5.25402 -1.44926,1.31281 -3.20464,1.96919 -5.26574,1.96919 h -11.20786 v -1.74014 H 410.885 c 1.59422,0 2.94277,-0.47763 4.04595,-1.43709 1.10289,-0.9567 1.65468,-2.30581 1.65468,-4.04598 0,-1.17451 -0.41897,-2.21361 -1.25608,-3.11441 -0.83754,-0.9022 -2.06933,-1.42592 -3.6957,-1.57117 -0.16116,0.0167 -0.41058,0.0238 -0.74885,0.0238 h -11.20786 z m 22.12592,-5.48306 c 0,2.25552 -0.79703,4.29175 -2.39125,6.1115 1.59422,1.77091 2.39125,3.69541 2.39125,5.77215 0,2.0139 -0.50348,3.84487 -1.50974,5.49563 -1.00653,1.65079 -2.34291,2.93146 -4.00963,3.84064 -1.66669,0.91059 -3.4662,1.36449 -5.39869,1.36449 h -11.20786 v -1.73879 H 410.885 c 2.51219,0 4.66979,-0.84072 6.47351,-2.52362 1.80342,-1.68291 2.70536,-3.8295 2.70536,-6.43835 0,-0.93292 -0.2377,-1.96781 -0.71255,-3.10324 -0.47511,-1.13541 -1.13151,-2.00131 -1.96863,-2.59625 1.7875,-1.67455 2.68118,-3.73592 2.68118,-6.18416 0,-2.35048 -0.91786,-4.3923 -2.75368,-6.1227 -1.83568,-1.73178 -3.97764,-2.59765 -6.42519,-2.59765 h -19.13078 v 34.78368 h -1.73902 v -36.52247 h 20.8698 c 1.91627,0 3.71565,0.47204 5.39869,1.41335 1.68249,0.94133 3.02308,2.222 4.0218,3.84066 0.9983,1.61867 1.49757,3.35323 1.49757,5.20513 z m -0.41061,6.20789 c 1.43304,-1.91614 2.14979,-3.9859 2.14979,-6.20789 0,-2.17313 -0.57597,-4.19817 -1.72704,-6.07521 -1.15162,-1.87566 -2.70171,-3.36441 -4.64984,-4.46773 -1.94866,-1.10331 -4.04217,-1.65496 -6.28036,-1.65496 h -22.60899 v 38.26123 h -1.73919 v -40 H 410.885 c 2.54421,0 4.92342,0.62707 7.13774,1.88402 2.21404,1.25553 3.97738,2.95799 5.29003,5.10876 1.31225,2.14935 1.96853,4.4649 1.96853,6.94389 0,2.36722 -0.66829,4.44396 -2.00483,6.23162 1.33654,1.8533 2.00483,3.73592 2.00483,5.65203 0,2.15916 -0.38645,4.13533 -1.15933,5.93138 -0.77301,1.79461 -1.81586,3.28898 -3.12811,4.48027 -1.31266,1.19131 -2.83816,2.11724 -4.57735,2.77786 -1.73918,0.66058 -3.58325,0.99017 -5.53151,0.99017 h -11.20786 v -1.73876 H 410.885 c 1.69085,0 3.30925,-0.31845 4.85516,-0.95388 1.54588,-0.63685 2.89025,-1.50135 4.03391,-2.59767 1.14314,-1.09493 2.0569,-2.41472 2.74154,-3.96076 0.68431,-1.54604 1.02663,-3.18844 1.02663,-4.92861 0,-0.77229 -0.18129,-1.70246 -0.54356,-2.78903 -0.36229,-1.08653 -0.89786,-2.04877 -1.60623,-2.88673 m -37.64719,19.85544 h -1.88415 l -15.79721,-40 h 1.85986 z m -19.56552,-40 15.82151,40 h -1.85997 l -15.82153,-40 z m -3.74401,0 15.8215,40 h -1.88415 l -15.79734,-40 z m -2.70536,28.26018 0.70056,-1.73877 h 5.94209 l 0.70038,1.73877 z m -1.35261,3.47895 0.67625,-1.73876 h 8.67164 l 0.74885,1.73876 z m -1.35273,3.47752 0.67638,-1.73876 h 11.40113 l 0.72457,1.73876 z m 4.73432,-19.37223 0.918,2.43985 -8.57515,21.71573 h -1.85983 z m -1.83581,-4.78195 0.91797,2.39096 -10.45911,26.54657 h -1.88404 z m -1.93236,-4.58922 0.99034,2.22197 -12.36732,31.30478 h -1.85983 z m -15.09681,33.52675 h -1.88401 l 15.82139,-40 h 1.88415 l 15.79735,40 h -1.86 l -14.87937,-37.6579 -14.87951,37.6579 m -19.62279,-40 h 1.73918 v 31.30479 h 13.9132 v 1.73876 h -13.9132 v 1.73874 h 13.9132 v 1.74019 h -13.9132 v 1.73876 h 13.9132 v 1.73876 h -15.65238 z m -3.4784,0 h 1.73921 v 40 h -1.73921 z m -3.47821,0 h 1.73918 v 40 h -1.73918 z m -3.47837,0 h 1.73918 v 40 h -1.73918 v -40 m -29.32952,40 h -1.88417 l -15.79721,-40 h 1.85986 z m -19.56554,-40 15.82151,40 h -1.85997 l -15.82153,-40 z m -3.74401,0 15.8215,40 h -1.88412 l -15.79737,-40 z m -2.70536,28.2602 0.70056,-1.73879 h 5.94209 l 0.70035,1.73879 z m -1.35258,3.47893 0.67622,-1.73879 h 8.67164 l 0.74885,1.73879 z m -1.35276,3.47755 0.67638,-1.73879 h 11.40113 l 0.72457,1.73879 z m 4.73432,-19.37229 0.918,2.43988 -8.57512,21.71573 h -1.85986 z m -1.83581,-4.78192 0.91797,2.39096 -10.45914,26.54657 h -1.88399 z m -1.93233,-4.58922 0.99031,2.22194 -12.36732,31.30481 h -1.85983 z m -15.09684,33.52675 h -1.88401 l 15.82139,-40 h 1.88415 l 15.79737,40 h -1.85999 l -14.8794,-37.65793 -14.87951,37.65793 m -6.23199,-40.1561 h 1.73879 v 40 h -1.73879 z m -3.47893,0 h 1.74017 v 40 h -1.74017 z m -3.47752,0 h 1.73876 v 40 h -1.73876 z m -3.47893,0 h 1.73876 v 40 h -1.73876 v -40 m -4.5838,0.1561 h 1.88402 l -15.82206,40 h -1.86028 z m -3.72057,0 h 1.86031 l -15.82208,40 h -1.85891 z m -3.76801,0 h 1.88402 l -15.82068,40 h -1.86026 z m -13.69642,21.71573 -0.91758,2.43986 -9.51642,-24.15559 h 1.86028 z m -1.83515,4.83082 -0.91758,2.39101 -11.42558,-28.93756 h 1.88402 z m -1.86026,4.75824 -0.9902,2.222 -13.23698,-33.52679 h 1.86026 z m -17.97145,-31.30479 h 1.88402 l 14.88077,37.65794 14.87935,-37.65794 h 1.85888 l -15.79692,40 h -1.88402 l -15.82208,-40 m -0.47207,40 h -1.88418 l -15.79721,-40 h 1.85986 z m -19.56554,-40 15.8215,40 h -1.85997 l -15.82153,-40 z m -3.74404,0 15.82152,40 h -1.88415 l -15.79731,-40 z m -2.70534,28.26018 0.70054,-1.73877 h 5.94209 l 0.70043,1.73877 z m -1.3526,3.47895 0.67622,-1.73876 h 8.67166 l 0.74885,1.73876 z m -1.35274,3.47752 0.67638,-1.73876 h 11.40114 l 0.72453,1.73876 z m 4.7343,-19.37223 0.91802,2.43988 -8.57514,21.7157 h -1.85984 z m -1.83579,-4.78195 0.91797,2.39096 -10.45911,26.54657 h -1.88404 z m -1.93233,-4.58922 0.99031,2.22197 -12.36731,31.30478 h -1.85984 z m -15.09686,33.52675 h -1.88399 l 15.82139,-40 h 1.88415 l 15.79735,40 h -1.85997 l -14.8794,-37.6579 -14.87953,37.6579 m -5.6248,-20.88393 h 1.71963 v 20.66433 h -1.71963 z m -3.44062,0 h 1.71969 v 20.66433 h -1.71969 z m -3.43919,0 h 1.71956 v 20.66433 h -1.71956 z m -1.72098,0 v 20.66433 c -3.02487,1.14646 -6.16304,1.71961 -9.41152,1.71961 -2.81905,0 -5.51799,-0.51795 -8.097994,-1.55245 -2.580375,-1.03457 -4.849521,-2.4724 -6.808179,-4.31218 -1.960086,-1.83978 -3.524752,-4.11599 -4.694554,-6.83149 -1.169856,-2.71552 -1.755696,-5.6506 -1.755696,-8.80398 0,-2.91428 0.569066,-5.69743 1.70725,-8.34943 1.139561,-2.65054 2.668217,-4.93636 4.587082,-6.85467 1.918308,-1.92031 4.204149,-3.44897 6.856121,-4.5871 2.652,-1.13816 5.43512,-1.70871 8.3494,-1.70871 3.6313,0 7.00699,0.84548 10.1286,2.53302 3.12155,1.68801 5.66986,3.98071 7.645,6.88017 l -1.4337,0.93086 c -1.81628,-2.65891 -4.16155,-4.76134 -7.0359,-6.30682 -2.87436,-1.54403 -5.97644,-2.31606 -9.304,-2.31606 -2.67528,0 -5.23605,0.52057 -7.68098,1.56464 -2.4447,1.04299 -4.551128,2.44758 -6.317301,4.21579 -1.76821,1.76758 -3.174047,3.87403 -4.21722,6.31875 -1.042643,2.4447 -1.564666,5.00423 -1.564666,7.67956 0,2.88274 0.537448,5.57456 1.611656,8.07469 1.076352,2.50134 2.508594,4.59528 4.301199,6.28314 1.791679,1.68791 3.873156,3.01384 6.247262,3.9779 2.37162,0.96269 4.83986,1.44476 7.4046,1.44476 2.69211,0 5.27902,-0.4213 7.76402,-1.26656 v -1.6478 c -2.37308,0.79698 -4.86612,1.19478 -7.47657,1.19478 -1.89635,0 -3.73896,-0.26665 -5.53043,-0.80116 -1.79144,-0.53314 -3.449029,-1.32181 -4.969484,-2.36463 -1.520851,-1.04281 -2.851123,-2.28452 -3.989202,-3.72653 -1.139137,-1.44068 -2.030227,-3.12147 -2.675043,-5.04005 -0.645451,-1.91992 -0.968322,-3.96123 -0.968322,-6.12854 0,-3.26379 0.808037,-6.28179 2.425329,-9.0538 1.615943,-2.77056 3.809497,-4.96422 6.581405,-6.58141 2.770747,-1.61586 5.788577,-2.42382 9.053747,-2.42382 3.05816,0 5.90066,0.71247 8.52779,2.13807 2.62842,1.425 4.7693,3.35637 6.42683,5.79263 l -1.43372,0.93237 c -1.49728,-2.19885 -3.43644,-3.93772 -5.81634,-5.21986 -2.38122,-1.28302 -4.95038,-1.92405 -7.70456,-1.92405 -2.21387,0 -4.33276,0.42995 -6.35473,1.29021 -2.022134,0.86032 -3.76251,2.01949 -5.21957,3.47655 -1.457167,1.45703 -2.616095,3.19746 -3.475303,5.21978 -0.860292,2.02194 -1.29024,4.14083 -1.29024,6.35333 0,1.99173 0.290274,3.85773 0.871855,5.60242 0.581528,1.74437 1.385226,3.26514 2.413053,4.56345 1.026107,1.29694 2.224855,2.41163 3.59529,3.34394 1.368558,0.93091 2.861605,1.63674 4.479135,2.11323 1.61599,0.47932 3.27615,0.71686 4.98051,0.71686 2.6438,0 5.16038,-0.44479 7.54857,-1.33707 v -1.71956 c -2.35641,0.9075 -4.81788,1.36044 -7.38127,1.36044 -1.9435,0 -3.79841,-0.33012 -5.56623,-0.99034 -1.76818,-0.66156 -3.34126,-1.59662 -4.71831,-2.80797 -1.377024,-1.20994 -2.472293,-2.75415 -3.28467,-4.63404 -0.811847,-1.87841 -1.2183,-3.94885 -1.2183,-6.21136 0,-2.64348 0.653574,-5.08828 1.958684,-7.33266 1.305189,-2.24608 3.081417,-4.02238 5.327436,-5.32744 2.24584,-1.30657 4.69064,-1.96017 7.33409,-1.96017 2.46825,0 4.76531,0.57346 6.89237,1.72117 2.12572,1.14628 3.85776,2.70714 5.19483,4.68231 l -1.43235,0.93112 c -1.17959,-1.71963 -2.70441,-3.08573 -4.57594,-4.09668 -1.87161,-1.01102 -3.89784,-1.51675 -6.07891,-1.51675 -2.34106,0 -4.49977,0.57719 -6.47377,1.7322 -1.974928,1.15446 -3.540018,2.71965 -4.694554,4.6931 -1.154933,1.97543 -1.732174,4.13271 -1.732174,6.4738 0,1.62441 0.230823,3.1382 0.693314,4.53872 0.461672,1.40197 1.098391,2.61331 1.910186,3.63119 0.812377,1.01941 1.763845,1.88815 2.854988,2.60498 1.0913,0.71552 2.26523,1.25426 3.52375,1.61195 1.25812,0.35769 2.56468,0.53732 3.91826,0.53732 2.69084,0 5.20735,-0.53319 7.54857,-1.60084 v -1.64774 c -2.26113,1.00271 -4.70591,1.50407 -7.33436,1.50407 -1.51246,0 -2.93772,-0.22929 -4.27495,-0.69194 -1.33819,-0.46135 -2.54394,-1.13818 -3.62024,-2.03041 -1.074317,-0.89233 -1.926461,-2.06626 -2.555058,-3.52348 -0.629973,-1.45717 -0.944774,-3.10235 -0.944774,-4.93382 0,-1.51244 0.295592,-2.95717 0.883814,-4.33567 0.589915,-1.37708 1.386814,-2.56757 2.389531,-3.57183 1.002827,-1.00274 2.193527,-1.79834 3.571827,-2.38807 1.37707,-0.58968 2.82183,-0.88382 4.33564,-0.88382 1.89524,0 3.65482,0.44194 5.27905,1.32575 1.62441,0.88429 2.94616,2.08148 3.9656,3.59529 l -1.40888,0.93112 c -0.86061,-1.27351 -1.97927,-2.28033 -3.35637,-3.0222 -1.37837,-0.74036 -2.8715,-1.11024 -4.4794,-1.11024 -2.61162,0 -4.84235,0.9239 -6.68922,2.77188 -1.84777,1.84687 -2.770425,4.07612 -2.770425,6.68779 0,1.60933 0.262441,3.03054 0.787162,4.26524 0.526071,1.23352 1.247273,2.22099 2.162893,2.96138 0.91585,0.74036 1.935,1.29841 3.05816,1.67261 1.12143,0.37428 2.32867,0.56087 3.61873,0.56087 2.64353,0 5.10352,-0.54838 7.38127,-1.64783 v -8.69611 h 1.71952"
         transform="translate(492.38032,70.2291)" /></g></g></svg>
